<svg xmlns="http://www.w3.org/2000/svg" style="display: none;">
  <!-- Ícone de Story -->
  <symbol id="story-icon" viewBox="0 0 24 24">
    <circle cx="12" cy="12" r="10" fill="none" stroke="currentColor" stroke-width="2"/>
    <circle cx="12" cy="12" r="6" fill="none" stroke="currentColor" stroke-width="1.5"/>
  </symbol>
  
  <!-- Ícone de Story Ativo -->
  <symbol id="story-active" viewBox="0 0 24 24">
    <circle cx="12" cy="12" r="10" fill="none" stroke="url(#storyGradient)" stroke-width="2"/>
    <circle cx="12" cy="12" r="6" fill="none" stroke="currentColor" stroke-width="1"/>
  </symbol>
  
  <!-- Ícone de Curtida -->
  <symbol id="heart-icon" viewBox="0 0 24 24">
    <path d="M20.84 4.61a5.5 5.5 0 0 0-7.78 0L12 5.67l-1.06-1.06a5.5 5.5 0 0 0-7.78 7.78l1.06 1.06L12 21.23l7.78-7.78 1.06-1.06a5.5 5.5 0 0 0 0-7.78z" 
          fill="none" stroke="currentColor" stroke-width="2" stroke-linejoin="round"/>
  </symbol>
  
  <!-- Ícone de Curtida Preenchido -->
  <symbol id="heart-filled" viewBox="0 0 24 24">
    <path d="M20.84 4.61a5.5 5.5 0 0 0-7.78 0L12 5.67l-1.06-1.06a5.5 5.5 0 0 0-7.78 7.78l1.06 1.06L12 21.23l7.78-7.78 1.06-1.06a5.5 5.5 0 0 0 0-7.78z" 
          fill="currentColor" stroke="none"/>
  </symbol>
  
  <!-- Ícone de Comentário -->
  <symbol id="comment-icon" viewBox="0 0 24 24">
    <path d="M21 15a2 2 0 0 1-2 2H7l-4 4V5a2 2 0 0 1 2-2h14a2 2 0 0 1 2 2z" 
          fill="none" stroke="currentColor" stroke-width="2" stroke-linejoin="round"/>
  </symbol>
  
  <!-- Ícone de Compartilhar -->
  <symbol id="share-icon" viewBox="0 0 24 24">
    <path d="M4 12v8a2 2 0 0 0 2 2h12a2 2 0 0 0 2-2v-8" fill="none" stroke="currentColor" stroke-width="2" stroke-linecap="round" stroke-linejoin="round"/>
    <polyline points="16,6 12,2 8,6" fill="none" stroke="currentColor" stroke-width="2" stroke-linecap="round" stroke-linejoin="round"/>
    <line x1="12" y1="2" x2="12" y2="15" stroke="currentColor" stroke-width="2" stroke-linecap="round"/>
  </symbol>
  
  <!-- Ícone de Adicionar Story -->
  <symbol id="add-story" viewBox="0 0 24 24">
    <circle cx="12" cy="12" r="10" fill="none" stroke="currentColor" stroke-width="2"/>
    <line x1="12" y1="8" x2="12" y2="16" stroke="currentColor" stroke-width="2" stroke-linecap="round"/>
    <line x1="8" y1="12" x2="16" y2="12" stroke="currentColor" stroke-width="2" stroke-linecap="round"/>
  </symbol>
  
  <!-- Ícone de Play para Story -->
  <symbol id="play-story" viewBox="0 0 24 24">
    <polygon points="5,3 19,12 5,21" fill="currentColor"/>
  </symbol>
  
  <!-- Ícone de Pause para Story -->
  <symbol id="pause-story" viewBox="0 0 24 24">
    <rect x="6" y="4" width="4" height="16" fill="currentColor"/>
    <rect x="14" y="4" width="4" height="16" fill="currentColor"/>
  </symbol>
  
  <!-- Ícone de Próximo -->
  <symbol id="next-icon" viewBox="0 0 24 24">
    <polyline points="9,18 15,12 9,6" fill="none" stroke="currentColor" stroke-width="2" stroke-linecap="round" stroke-linejoin="round"/>
  </symbol>
  
  <!-- Ícone de Anterior -->
  <symbol id="prev-icon" viewBox="0 0 24 24">
    <polyline points="15,18 9,12 15,6" fill="none" stroke="currentColor" stroke-width="2" stroke-linecap="round" stroke-linejoin="round"/>
  </symbol>
  
  <!-- Ícone de Fechar -->
  <symbol id="close-icon" viewBox="0 0 24 24">
    <line x1="18" y1="6" x2="6" y2="18" stroke="currentColor" stroke-width="2" stroke-linecap="round"/>
    <line x1="6" y1="6" x2="18" y2="18" stroke="currentColor" stroke-width="2" stroke-linecap="round"/>
  </symbol>
  
  <!-- Ícones de Navegação -->
  <symbol id="home-icon" viewBox="0 0 24 24">
    <path d="M3 9l9-7 9 7v11a2 2 0 0 1-2 2H5a2 2 0 0 1-2-2z" fill="none" stroke="currentColor" stroke-width="2" stroke-linejoin="round"/>
    <polyline points="9,22 9,12 15,12 15,22" fill="none" stroke="currentColor" stroke-width="2" stroke-linejoin="round"/>
  </symbol>
  
  <symbol id="search-icon" viewBox="0 0 24 24">
    <circle cx="11" cy="11" r="8" fill="none" stroke="currentColor" stroke-width="2"/>
    <path d="M21 21l-4.35-4.35" stroke="currentColor" stroke-width="2" stroke-linecap="round"/>
  </symbol>
  
  <symbol id="user-icon" viewBox="0 0 24 24">
    <path d="M20 21v-2a4 4 0 0 0-4-4H8a4 4 0 0 0-4 4v2" fill="none" stroke="currentColor" stroke-width="2" stroke-linecap="round" stroke-linejoin="round"/>
    <circle cx="12" cy="7" r="4" fill="none" stroke="currentColor" stroke-width="2"/>
  </symbol>
  
  <symbol id="settings-icon" viewBox="0 0 24 24">
    <circle cx="12" cy="12" r="3" fill="none" stroke="currentColor" stroke-width="2"/>
    <path d="M19.4 15a1.65 1.65 0 0 0 .33 1.82l.06.06a2 2 0 0 1 0 2.83 2 2 0 0 1-2.83 0l-.06-.06a1.65 1.65 0 0 0-1.82-.33 1.65 1.65 0 0 0-1 1.51V21a2 2 0 0 1-2 2 2 2 0 0 1-2-2v-.09A1.65 1.65 0 0 0 9 19.4a1.65 1.65 0 0 0-1.82.33l-.06.06a2 2 0 0 1-2.83 0 2 2 0 0 1 0-2.83l.06-.06a1.65 1.65 0 0 0 .33-1.82 1.65 1.65 0 0 0-1.51-1H3a2 2 0 0 1-2-2 2 2 0 0 1 2-2h.09A1.65 1.65 0 0 0 4.6 9a1.65 1.65 0 0 0-.33-1.82l-.06-.06a2 2 0 0 1 0-2.83 2 2 0 0 1 2.83 0l.06.06a1.65 1.65 0 0 0 1.82.33H9a1.65 1.65 0 0 0 1 1.51V3a2 2 0 0 1 2-2 2 2 0 0 1 2 2v.09a1.65 1.65 0 0 0 1 1.51 1.65 1.65 0 0 0 1.82-.33l.06-.06a2 2 0 0 1 2.83 0 2 2 0 0 1 0 2.83l-.06.06a1.65 1.65 0 0 0-.33 1.82V9a1.65 1.65 0 0 0 1.51 1H21a2 2 0 0 1 2 2 2 2 0 0 1-2 2h-.09a1.65 1.65 0 0 0-1.51 1z" fill="none" stroke="currentColor" stroke-width="2"/>
  </symbol>
  
  <!-- Ícones de Mídia -->
  <symbol id="camera-icon" viewBox="0 0 24 24">
    <path d="M23 19a2 2 0 0 1-2 2H3a2 2 0 0 1-2-2V8a2 2 0 0 1 2-2h4l2-3h6l2 3h4a2 2 0 0 1 2 2z" fill="none" stroke="currentColor" stroke-width="2" stroke-linejoin="round"/>
    <circle cx="12" cy="13" r="4" fill="none" stroke="currentColor" stroke-width="2"/>
  </symbol>
  
  <symbol id="image-icon" viewBox="0 0 24 24">
    <rect x="3" y="3" width="18" height="18" rx="2" ry="2" fill="none" stroke="currentColor" stroke-width="2"/>
    <circle cx="8.5" cy="8.5" r="1.5" fill="currentColor"/>
    <polyline points="21,15 16,10 5,21" fill="none" stroke="currentColor" stroke-width="2" stroke-linejoin="round"/>
  </symbol>
  
  <symbol id="emoji-icon" viewBox="0 0 24 24">
    <circle cx="12" cy="12" r="10" fill="none" stroke="currentColor" stroke-width="2"/>
    <path d="M8 14s1.5 2 4 2 4-2 4-2" fill="none" stroke="currentColor" stroke-width="2" stroke-linecap="round"/>
    <line x1="9" y1="9" x2="9.01" y2="9" stroke="currentColor" stroke-width="2" stroke-linecap="round"/>
    <line x1="15" y1="9" x2="15.01" y2="9" stroke="currentColor" stroke-width="2" stroke-linecap="round"/>
  </symbol>
  
  <!-- Ícones de Sistema -->
  <symbol id="moon-icon" viewBox="0 0 24 24">
    <path d="M21 12.79A9 9 0 1 1 11.21 3 7 7 0 0 0 21 12.79z" fill="currentColor"/>
  </symbol>
  
  <symbol id="sun-icon" viewBox="0 0 24 24">
    <circle cx="12" cy="12" r="5" fill="none" stroke="currentColor" stroke-width="2"/>
    <line x1="12" y1="1" x2="12" y2="3" stroke="currentColor" stroke-width="2" stroke-linecap="round"/>
    <line x1="12" y1="21" x2="12" y2="23" stroke="currentColor" stroke-width="2" stroke-linecap="round"/>
    <line x1="4.22" y1="4.22" x2="5.64" y2="5.64" stroke="currentColor" stroke-width="2" stroke-linecap="round"/>
    <line x1="18.36" y1="18.36" x2="19.78" y2="19.78" stroke="currentColor" stroke-width="2" stroke-linecap="round"/>
    <line x1="1" y1="12" x2="3" y2="12" stroke="currentColor" stroke-width="2" stroke-linecap="round"/>
    <line x1="21" y1="12" x2="23" y2="12" stroke="currentColor" stroke-width="2" stroke-linecap="round"/>
    <line x1="4.22" y1="19.78" x2="5.64" y2="18.36" stroke="currentColor" stroke-width="2" stroke-linecap="round"/>
    <line x1="18.36" y1="5.64" x2="19.78" y2="4.22" stroke="currentColor" stroke-width="2" stroke-linecap="round"/>
  </symbol>
  
  <symbol id="bell-icon" viewBox="0 0 24 24">
    <path d="M18 8A6 6 0 0 0 6 8c0 7-3 9-3 9h18s-3-2-3-9" fill="none" stroke="currentColor" stroke-width="2" stroke-linecap="round" stroke-linejoin="round"/>
    <path d="M13.73 21a2 2 0 0 1-3.46 0" fill="none" stroke="currentColor" stroke-width="2" stroke-linecap="round" stroke-linejoin="round"/>
  </symbol>
  
  <symbol id="shield-icon" viewBox="0 0 24 24">
    <path d="M12 22s8-4 8-10V5l-8-3-8 3v7c0 6 8 10 8 10z" fill="none" stroke="currentColor" stroke-width="2" stroke-linejoin="round"/>
  </symbol>
  
  <!-- Ícones de Ação -->
  <symbol id="send-icon" viewBox="0 0 24 24">
    <line x1="22" y1="2" x2="11" y2="13" stroke="currentColor" stroke-width="2" stroke-linecap="round"/>
    <polygon points="22,2 15,22 11,13 2,9" fill="currentColor"/>
  </symbol>
  
  <symbol id="edit-icon" viewBox="0 0 24 24">
    <path d="M11 4H4a2 2 0 0 0-2 2v14a2 2 0 0 0 2 2h14a2 2 0 0 0 2-2v-7" fill="none" stroke="currentColor" stroke-width="2" stroke-linecap="round" stroke-linejoin="round"/>
    <path d="M18.5 2.5a2.121 2.121 0 0 1 3 3L12 15l-4 1 1-4 9.5-9.5z" fill="none" stroke="currentColor" stroke-width="2" stroke-linecap="round" stroke-linejoin="round"/>
  </symbol>
  
  <symbol id="more-icon" viewBox="0 0 24 24">
    <circle cx="12" cy="12" r="1" fill="currentColor"/>
    <circle cx="19" cy="12" r="1" fill="currentColor"/>
    <circle cx="5" cy="12" r="1" fill="currentColor"/>
  </symbol>
  
  <!-- Gradientes para Stories -->
  <defs>
    <linearGradient id="storyGradient" x1="0%" y1="0%" x2="100%" y2="100%">
      <stop offset="0%" style="stop-color:#ff6b6b;stop-opacity:1" />
      <stop offset="50%" style="stop-color:#4ecdc4;stop-opacity:1" />
      <stop offset="100%" style="stop-color:#45b7d1;stop-opacity:1" />
    </linearGradient>
    
    <linearGradient id="storyProgressGradient" x1="0%" y1="0%" x2="100%" y2="0%">
      <stop offset="0%" style="stop-color:#ff6b6b;stop-opacity:1" />
      <stop offset="100%" style="stop-color:#4ecdc4;stop-opacity:1" />
    </linearGradient>
  </defs>
</svg>
